<svg width="162" height="44" viewBox="0 0 162 44" fill="none" xmlns="http://www.w3.org/2000/svg">
<mask id="path-1-outside-1_857_93848" maskUnits="userSpaceOnUse" x="-0.654251" y="-0.964704" width="163.421" height="46.2142" fill="black">
<rect fill="white" x="-0.654251" y="-0.964704" width="163.421" height="46.2142"/>
<path d="M0.460191 13.4246L0.27452 8.61089L22.954 7.73611L23.1397 12.5498L14.6854 12.8759L15.5649 35.6767L9.79391 35.8993L8.91444 13.0985L0.460191 13.4246ZM28.4057 35.1814L27.6068 14.4705L33.3508 14.249L34.1497 34.9599L28.4057 35.1814ZM30.3893 11.6895C29.5354 11.7224 28.7918 11.4675 28.1587 10.9248C27.5343 10.3727 27.2066 9.69666 27.1758 8.89663C27.1452 8.10559 27.4202 7.4153 28.0006 6.82576C28.5897 6.22687 29.3112 5.91096 30.1652 5.87803C31.0191 5.84509 31.7583 6.10465 32.3828 6.65673C33.0159 7.19946 33.3477 7.86635 33.3782 8.65739C33.4091 9.45742 33.13 10.1569 32.5409 10.7558C31.9605 11.3453 31.2433 11.6565 30.3893 11.6895ZM43.5117 13.8571L47.5934 20.9511L51.2109 13.5601L57.1032 13.3328L51.5024 23.9197L58.0639 34.0375L52.1985 34.2637L47.8368 27.2615L44.0948 34.5763L38.162 34.8051L43.9111 24.2125L37.5789 14.0859L43.5117 13.8571ZM62.1807 33.8787L61.1156 6.26415L72.1722 5.83768C74.2037 5.75932 75.9098 5.9951 77.2904 6.54501C78.6709 7.09493 79.7234 7.89156 80.4479 8.93491C81.172 9.96927 81.5607 11.1786 81.6141 12.5629C81.6557 13.6416 81.4765 14.5983 81.0766 15.433C80.6764 16.2586 80.1087 16.9467 79.3738 17.4972C78.6474 18.0383 77.8075 18.4353 76.854 18.6882L76.8644 18.9578C77.9178 18.9622 78.9136 19.2209 79.8516 19.7339C80.7987 20.2465 81.5789 20.9861 82.1923 21.9527C82.8054 22.9103 83.1382 24.0678 83.1905 25.4252C83.247 26.8904 82.9334 28.2124 82.2497 29.3911C81.5746 30.5604 80.5442 31.5049 79.1586 32.2245C77.773 32.9442 76.0464 33.3438 73.9789 33.4236L62.1807 33.8787ZM67.835 28.8803L72.5948 28.6967C74.2218 28.6339 75.3964 28.278 76.1186 27.629C76.8404 26.971 77.1812 26.1206 77.141 25.0779C77.1115 24.3138 76.9012 23.6467 76.5101 23.0766C76.119 22.5066 75.5755 22.0684 74.8795 21.7622C74.1925 21.4556 73.3815 21.3203 72.4467 21.3564L67.5521 21.5452L67.835 28.8803ZM67.3997 17.5944L71.728 17.4275C72.528 17.3966 73.2328 17.2299 73.8423 16.9273C74.4604 16.6154 74.9392 16.1918 75.2787 15.6566C75.6271 15.121 75.7873 14.4892 75.7592 13.761C75.7207 12.7632 75.3346 11.9724 74.6009 11.3886C73.8762 10.8043 72.8666 10.5372 71.5722 10.5871L67.136 10.7582L67.3997 17.5944ZM91.7812 40.5151C91.0531 40.5431 90.3677 40.5111 89.7249 40.4188C89.0915 40.3352 88.5648 40.216 88.1447 40.0612L89.2737 35.7234C89.9559 35.9042 90.567 35.9931 91.107 35.9903C91.6561 35.9871 92.1231 35.8431 92.5083 35.5582C92.9024 35.2729 93.2128 34.8018 93.4395 34.1449L93.7428 33.2554L85.4916 12.2378L91.5322 12.0048L96.4067 27.049L96.6224 27.0407L100.364 11.6642L106.445 11.4296L99.2806 34.6893C98.9371 35.8188 98.4487 36.8099 97.8154 37.6626C97.1914 38.5239 96.3847 39.1987 95.3953 39.687C94.4062 40.1843 93.2015 40.4603 91.7812 40.5151ZM113.215 31.9102L106.958 32.1515L115.426 4.1693L122.95 3.87909L133.535 31.1264L127.278 31.3677L119.539 10.3304L119.324 10.3387L113.215 31.9102ZM112.405 21.0709L127.183 20.5009L127.359 25.0584L112.581 25.6284L112.405 21.0709ZM137.621 30.9688L136.822 10.2579L142.566 10.0364L143.365 30.7472L137.621 30.9688ZM139.605 7.47685C138.751 7.50979 138.007 7.25489 137.374 6.71216C136.75 6.16009 136.422 5.48403 136.391 4.684C136.361 3.89296 136.636 3.20267 137.216 2.61313C137.805 2.01425 138.527 1.69834 139.381 1.6654C140.235 1.63246 140.974 1.89203 141.598 2.4441C142.231 2.98684 142.563 3.65372 142.594 4.44476C142.625 5.24479 142.346 5.94425 141.756 6.54313C141.176 7.13267 140.459 7.44391 139.605 7.47685ZM148.726 30.5405L147.927 9.82959L153.496 9.61479L153.635 13.2284L153.851 13.2201C154.179 11.9201 154.775 10.9248 155.64 10.2343C156.504 9.53477 157.516 9.16265 158.676 9.11792C158.963 9.10682 159.274 9.11284 159.608 9.13597C159.942 9.15909 160.236 9.19727 160.49 9.25048L160.687 14.3473C160.414 14.2768 160.038 14.2193 159.559 14.1747C159.08 14.1302 158.643 14.1155 158.248 14.1308C157.403 14.1634 156.655 14.3768 156.004 14.771C155.361 15.1559 154.86 15.6794 154.498 16.3415C154.145 17.0033 153.985 17.7566 154.018 18.6016L154.47 30.3189L148.726 30.5405Z"/>
</mask>
<path d="M0.460191 13.4246L-0.330849 13.4551L-0.300338 14.2461L0.490703 14.2156L0.460191 13.4246ZM0.27452 8.61089L0.244009 7.81985L-0.547032 7.85036L-0.51652 8.6414L0.27452 8.61089ZM22.954 7.73611L23.7451 7.70559L23.7145 6.91455L22.9235 6.94507L22.954 7.73611ZM23.1397 12.5498L23.1702 13.3408L23.9612 13.3103L23.9307 12.5193L23.1397 12.5498ZM14.6854 12.8759L14.6549 12.0848L13.8639 12.1153L13.8944 12.9064L14.6854 12.8759ZM15.5649 35.6767L15.5954 36.4678L16.3865 36.4372L16.356 35.6462L15.5649 35.6767ZM9.79391 35.8993L9.00287 35.9298L9.03338 36.7209L9.82442 36.6904L9.79391 35.8993ZM8.91444 13.0985L9.70548 13.0679L9.67497 12.2769L8.88393 12.3074L8.91444 13.0985ZM1.25123 13.394L1.06556 8.58038L-0.51652 8.6414L-0.330849 13.4551L1.25123 13.394ZM0.305032 9.40193L22.9845 8.52715L22.9235 6.94507L0.244009 7.81985L0.305032 9.40193ZM22.163 7.76662L22.3487 12.5803L23.9307 12.5193L23.7451 7.70559L22.163 7.76662ZM23.1092 11.7587L14.6549 12.0848L14.716 13.6669L23.1702 13.3408L23.1092 11.7587ZM13.8944 12.9064L14.7739 35.7072L16.356 35.6462L15.4765 12.8454L13.8944 12.9064ZM15.5344 34.8857L9.7634 35.1083L9.82442 36.6904L15.5954 36.4678L15.5344 34.8857ZM10.5849 35.8688L9.70548 13.0679L8.1234 13.129L9.00287 35.9298L10.5849 35.8688ZM8.88393 12.3074L0.42968 12.6335L0.490703 14.2156L8.94495 13.8895L8.88393 12.3074ZM28.4057 35.1814L27.6146 35.2119L27.6451 36.003L28.4362 35.9725L28.4057 35.1814ZM27.6068 14.4705L27.5763 13.6795L26.7853 13.71L26.8158 14.5011L27.6068 14.4705ZM33.3508 14.249L34.1419 14.2185L34.1114 13.4274L33.3203 13.4579L33.3508 14.249ZM34.1497 34.9599L34.1802 35.7509L34.9712 35.7204L34.9407 34.9294L34.1497 34.9599ZM28.1587 10.9248L27.6343 11.5179L27.6435 11.5258L28.1587 10.9248ZM28.0006 6.82576L28.5647 7.38114L28.565 7.38088L28.0006 6.82576ZM32.3828 6.65673L31.8584 7.24988L31.8676 7.25774L32.3828 6.65673ZM32.5409 10.7558L33.105 11.3111L33.1053 11.3109L32.5409 10.7558ZM29.1967 35.1509L28.3978 14.44L26.8158 14.5011L27.6146 35.2119L29.1967 35.1509ZM27.6373 15.2616L33.3814 15.04L33.3203 13.4579L27.5763 13.6795L27.6373 15.2616ZM32.5598 14.2795L33.3587 34.9904L34.9407 34.9294L34.1419 14.2185L32.5598 14.2795ZM34.1192 34.1688L28.3751 34.3904L28.4362 35.9725L34.1802 35.7509L34.1192 34.1688ZM30.3588 10.8984C29.6987 10.9239 29.1515 10.7331 28.674 10.3238L27.6435 11.5258C28.4322 12.2019 29.372 12.5209 30.4198 12.4805L30.3588 10.8984ZM28.6831 10.3317C28.2131 9.91624 27.9889 9.4403 27.9668 8.86612L26.3847 8.92714C26.4243 9.95303 26.8554 10.8292 27.6344 11.5179L28.6831 10.3317ZM27.9668 8.86612C27.9451 8.30415 28.1298 7.82295 28.5647 7.38114L27.4365 6.27037C26.7106 7.00765 26.3454 7.90703 26.3847 8.92714L27.9668 8.86612ZM28.565 7.38088C29.0099 6.92851 29.5393 6.69438 30.1957 6.66907L30.1347 5.08698C29.0831 5.12755 28.1694 5.52524 27.4363 6.27063L28.565 7.38088ZM30.1957 6.66907C30.8518 6.64376 31.3909 6.83639 31.8585 7.24981L32.9071 6.06364C32.1258 5.37291 31.1864 5.04642 30.1347 5.08698L30.1957 6.66907ZM31.8676 7.25774C32.3434 7.66563 32.5657 8.13004 32.5872 8.6879L34.1693 8.62688C34.1298 7.60266 33.6884 6.7333 32.898 6.05571L31.8676 7.25774ZM32.5872 8.6879C32.6092 9.25804 32.421 9.74876 31.9765 10.2006L33.1053 11.3109C33.8389 10.565 34.209 9.6568 34.1693 8.62688L32.5872 8.6879ZM31.9768 10.2004C31.5428 10.6411 31.0188 10.873 30.3588 10.8984L30.4198 12.4805C31.4678 12.4401 32.3781 12.0495 33.105 11.3111L31.9768 10.2004ZM43.5117 13.8571L44.1979 13.4623L43.9593 13.0476L43.4812 13.066L43.5117 13.8571ZM47.5934 20.9511L46.9072 21.3459L47.6498 22.6366L48.3044 21.2991L47.5934 20.9511ZM51.2109 13.5601L51.1804 12.7691L50.7078 12.7873L50.4998 13.2121L51.2109 13.5601ZM57.1032 13.3328L57.803 13.703L58.4453 12.4888L57.0727 12.5418L57.1032 13.3328ZM51.5024 23.9197L50.8027 23.5495L50.5853 23.9604L50.8382 24.3504L51.5024 23.9197ZM58.0639 34.0375L58.0944 34.8285L59.4856 34.7748L58.7281 33.6067L58.0639 34.0375ZM52.1985 34.2637L51.5266 34.6822L51.7696 35.0725L52.229 35.0547L52.1985 34.2637ZM47.8368 27.2615L48.5087 26.8429L47.7691 25.6556L47.132 26.9009L47.8368 27.2615ZM44.0948 34.5763L44.1253 35.3673L44.5885 35.3494L44.7996 34.9368L44.0948 34.5763ZM38.162 34.8051L37.4663 34.4275L36.8029 35.6498L38.1925 35.5962L38.162 34.8051ZM43.9111 24.2125L44.6069 24.5901L44.8272 24.1843L44.5823 23.7928L43.9111 24.2125ZM37.5789 14.0859L37.5484 13.2949L36.1835 13.3475L36.9077 14.5056L37.5789 14.0859ZM42.8256 14.2519L46.9072 21.3459L48.2795 20.5563L44.1979 13.4623L42.8256 14.2519ZM48.3044 21.2991L51.9219 13.9081L50.4998 13.2121L46.8824 20.6031L48.3044 21.2991ZM51.2414 14.3511L57.1337 14.1239L57.0727 12.5418L51.1804 12.7691L51.2414 14.3511ZM56.4035 12.9626L50.8027 23.5495L52.2022 24.2899L57.803 13.703L56.4035 12.9626ZM50.8382 24.3504L57.3997 34.4682L58.7281 33.6067L52.1666 23.489L50.8382 24.3504ZM58.0334 33.2464L52.168 33.4727L52.229 35.0547L58.0944 34.8285L58.0334 33.2464ZM52.8704 33.8452L48.5087 26.8429L47.1649 27.68L51.5266 34.6822L52.8704 33.8452ZM47.132 26.9009L43.3901 34.2157L44.7996 34.9368L48.5416 27.622L47.132 26.9009ZM44.0643 33.7852L38.1315 34.0141L38.1925 35.5962L44.1253 35.3673L44.0643 33.7852ZM38.8578 35.1827L44.6069 24.5901L43.2154 23.8349L37.4663 34.4275L38.8578 35.1827ZM44.5823 23.7928L38.2501 13.6662L36.9077 14.5056L43.2399 24.6322L44.5823 23.7928ZM37.6094 14.8769L43.5422 14.6481L43.4812 13.066L37.5484 13.2949L37.6094 14.8769ZM62.1807 33.8787L61.3897 33.9092L61.4202 34.7002L62.2112 34.6697L62.1807 33.8787ZM61.1156 6.26415L61.0851 5.47311L60.294 5.50362L60.3245 6.29466L61.1156 6.26415ZM77.2904 6.54501L76.9974 7.28045L77.2904 6.54501ZM80.4479 8.93491L79.7976 9.38641L79.7994 9.38889L80.4479 8.93491ZM81.0766 15.433L81.789 15.7783L81.7905 15.775L81.0766 15.433ZM79.3738 17.4972L79.8467 18.132L79.8483 18.1308L79.3738 17.4972ZM76.854 18.6882L76.6511 17.923L76.0385 18.0854L76.0629 18.7187L76.854 18.6882ZM76.8644 18.9578L76.0734 18.9884L76.1026 19.7463L76.8611 19.7495L76.8644 18.9578ZM79.8516 19.7339L79.4718 20.4284L79.4748 20.4301L79.8516 19.7339ZM82.1923 21.9527L81.5239 22.3769L81.5256 22.3796L82.1923 21.9527ZM82.2497 29.3911L81.5649 28.9938L81.5641 28.9953L82.2497 29.3911ZM79.1586 32.2245L78.7937 31.522L79.1586 32.2245ZM67.835 28.8803L67.044 28.9108L67.0745 29.7018L67.8655 29.6713L67.835 28.8803ZM76.1186 27.629L76.6477 28.2178L76.6519 28.214L76.1186 27.629ZM76.5101 23.0766L75.8573 23.5245L75.8573 23.5245L76.5101 23.0766ZM74.8795 21.7622L74.5569 22.4851L74.5607 22.4867L74.8795 21.7622ZM67.5521 21.5452L67.5216 20.7541L66.7306 20.7846L66.7611 21.5757L67.5521 21.5452ZM67.3997 17.5944L66.6087 17.625L66.6392 18.416L67.4302 18.3855L67.3997 17.5944ZM73.8423 16.9273L74.1943 17.6364L74.1989 17.6341L73.8423 16.9273ZM75.2787 15.6566L74.6151 15.2249L74.6101 15.2326L75.2787 15.6566ZM74.6009 11.3886L74.1041 12.0049L74.108 12.008L74.6009 11.3886ZM67.136 10.7582L67.1055 9.96719L66.3145 9.9977L66.345 10.7887L67.136 10.7582ZM62.9718 33.8482L61.9066 6.23364L60.3245 6.29466L61.3897 33.9092L62.9718 33.8482ZM61.1461 7.05519L72.2027 6.62872L72.1417 5.04664L61.0851 5.47311L61.1461 7.05519ZM72.2027 6.62872C74.162 6.55315 75.75 6.78358 76.9974 7.28045L77.5833 5.80958C76.0695 5.20662 74.2455 4.96549 72.1417 5.04664L72.2027 6.62872ZM76.9974 7.28045C78.2587 7.78284 79.1761 8.49123 79.7976 9.3864L81.0981 8.48342C80.2708 7.29189 79.0832 6.40702 77.5833 5.80958L76.9974 7.28045ZM79.7994 9.38889C80.4279 10.2867 80.7749 11.3457 80.8231 12.5934L82.4051 12.5324C82.3465 11.0115 81.9161 9.65184 81.0964 8.48093L79.7994 9.38889ZM80.8231 12.5934C80.8605 13.565 80.6984 14.3902 80.3627 15.0909L81.7905 15.775C82.2547 14.8064 82.4509 13.7183 82.4051 12.5324L80.8231 12.5934ZM80.3643 15.0876C80.0192 15.7995 79.5331 16.3888 78.8992 16.8636L79.8483 18.1308C80.6843 17.5046 81.3335 16.7177 81.789 15.7783L80.3643 15.0876ZM78.9008 16.8624C78.2623 17.3381 77.5158 17.6937 76.6511 17.923L77.0569 19.4534C78.0992 19.177 79.0326 18.7386 79.8467 18.132L78.9008 16.8624ZM76.0629 18.7187L76.0734 18.9884L77.6554 18.9273L77.645 18.6577L76.0629 18.7187ZM76.8611 19.7495C77.7809 19.7533 78.6475 19.9776 79.4718 20.4284L80.2315 19.0393C79.1797 18.4642 78.0548 18.1712 76.8677 18.1662L76.8611 19.7495ZM79.4748 20.4301C80.2955 20.8743 80.9782 21.5169 81.5239 22.3769L82.8607 21.5285C82.1796 20.4553 81.3018 19.6187 80.2285 19.0377L79.4748 20.4301ZM81.5256 22.3796C82.0492 23.1973 82.3515 24.2117 82.3995 25.4557L83.9816 25.3947C83.9248 23.924 83.5617 22.6234 82.859 21.5259L81.5256 22.3796ZM82.3995 25.4557C82.4507 26.783 82.1677 27.9547 81.5649 28.9938L82.9344 29.7883C83.6991 28.47 84.0434 26.9978 83.9816 25.3947L82.3995 25.4557ZM81.5641 28.9953C80.9757 30.0144 80.0668 30.8608 78.7937 31.522L79.5235 32.9271C81.0216 32.149 82.1735 31.1064 82.9353 29.7869L81.5641 28.9953ZM78.7937 31.522C77.5396 32.1733 75.9355 32.5559 73.9484 32.6325L74.0094 34.2146C76.1573 34.1318 78.0063 33.715 79.5235 32.9271L78.7937 31.522ZM73.9484 32.6325L62.1502 33.0876L62.2112 34.6697L74.0094 34.2146L73.9484 32.6325ZM67.8655 29.6713L72.6253 29.4877L72.5642 27.9056L67.8045 28.0892L67.8655 29.6713ZM72.6253 29.4877C74.3221 29.4223 75.7217 29.05 76.6477 28.2178L75.5894 27.0402C75.0711 27.506 74.1215 27.8456 72.5642 27.9056L72.6253 29.4877ZM76.6519 28.214C77.5591 27.387 77.9805 26.3051 77.932 25.0474L76.3499 25.1084C76.3819 25.9361 76.1217 26.555 75.5852 27.044L76.6519 28.214ZM77.932 25.0474C77.8974 24.1503 77.6474 23.335 77.1629 22.6288L75.8573 23.5245C76.155 23.9584 76.3256 24.4773 76.3499 25.1084L77.932 25.0474ZM77.1629 22.6288C76.6802 21.9252 76.0153 21.397 75.1983 21.0376L74.5607 22.4867C75.1357 22.7398 75.5578 23.0879 75.8573 23.5245L77.1629 22.6288ZM75.2021 21.0393C74.3805 20.6726 73.4435 20.5257 72.4162 20.5653L72.4772 22.1474C73.3196 22.1149 74.0045 22.2386 74.5569 22.4851L75.2021 21.0393ZM72.4162 20.5653L67.5216 20.7541L67.5826 22.3362L72.4772 22.1474L72.4162 20.5653ZM66.7611 21.5757L67.044 28.9108L68.6261 28.8497L68.3431 21.5146L66.7611 21.5757ZM67.4302 18.3855L71.7585 18.2185L71.6975 16.6365L67.3692 16.8034L67.4302 18.3855ZM71.7585 18.2185C72.6507 18.1841 73.4685 17.9967 74.1943 17.6364L73.4902 16.2183C72.9971 16.4631 72.4052 16.6092 71.6975 16.6365L71.7585 18.2185ZM74.1989 17.6341C74.9324 17.2639 75.5242 16.7475 75.9472 16.0806L74.6101 15.2326C74.3542 15.6362 73.9884 15.9669 73.4856 16.2206L74.1989 17.6341ZM75.9422 16.0883C76.3921 15.3968 76.5837 14.5984 76.5502 13.7305L74.9682 13.7916C74.9908 14.3799 74.8621 14.8452 74.6151 15.2249L75.9422 16.0883ZM76.5502 13.7305C76.5035 12.5194 76.0208 11.5068 75.0938 10.7691L74.108 12.008C74.6484 12.4381 74.9379 13.0071 74.9682 13.7916L76.5502 13.7305ZM75.0977 10.7722C74.1747 10.0282 72.9526 9.74166 71.5416 9.79608L71.6027 11.3782C72.7806 11.3327 73.5776 11.5805 74.1041 12.0049L75.0977 10.7722ZM71.5416 9.79608L67.1055 9.96719L67.1665 11.5493L71.6027 11.3782L71.5416 9.79608ZM66.345 10.7887L66.6087 17.625L68.1908 17.5639L67.9271 10.7277L66.345 10.7887ZM89.7249 40.4188L89.8374 39.6352L89.8285 39.634L89.7249 40.4188ZM88.1447 40.0612L87.3786 39.8618L87.1979 40.5559L87.8709 40.8039L88.1447 40.0612ZM89.2737 35.7234L89.4765 34.9582L88.7079 34.7546L88.5076 35.524L89.2737 35.7234ZM91.107 35.9903L91.1112 36.7819L91.1116 36.7819L91.107 35.9903ZM92.5083 35.5582L92.0441 34.9169L92.0374 34.9218L92.5083 35.5582ZM93.4395 34.1449L94.1878 34.4031L94.1888 34.4004L93.4395 34.1449ZM93.7428 33.2554L94.4921 33.5109L94.5857 33.2363L94.4797 32.9661L93.7428 33.2554ZM85.4916 12.2378L85.4611 11.4468L84.3474 11.4897L84.7547 12.5271L85.4916 12.2378ZM91.5322 12.0048L92.2853 11.7608L92.1006 11.1907L91.5017 11.2138L91.5322 12.0048ZM96.4067 27.049L95.6536 27.293L95.8383 27.8631L96.4372 27.84L96.4067 27.049ZM96.6224 27.0407L96.653 27.8317L97.2503 27.8087L97.3916 27.2278L96.6224 27.0407ZM100.364 11.6642L100.334 10.8731L99.7362 10.8962L99.5949 11.477L100.364 11.6642ZM106.445 11.4296L107.202 11.6627L107.53 10.5955L106.415 10.6386L106.445 11.4296ZM99.2806 34.6893L98.5241 34.4562L98.5232 34.4589L99.2806 34.6893ZM97.8154 37.6626L97.1798 37.1905L97.1743 37.1982L97.8154 37.6626ZM95.3953 39.687L95.0449 38.9771L95.0397 38.9797L95.3953 39.687ZM91.7507 39.724C91.0647 39.7505 90.4275 39.7199 89.8374 39.6352L89.6125 41.2024C90.3079 41.3022 91.0415 41.3358 91.8117 41.3061L91.7507 39.724ZM89.8285 39.634C89.2308 39.5551 88.7658 39.4464 88.4185 39.3184L87.8709 40.8039C88.3638 40.9856 88.9523 41.1153 89.6213 41.2037L89.8285 39.634ZM88.9108 40.2606L90.0398 35.9228L88.5076 35.524L87.3786 39.8618L88.9108 40.2606ZM89.071 36.4887C89.8013 36.6822 90.4837 36.7852 91.1112 36.7819L91.1029 35.1987C90.6502 35.2011 90.1105 35.1262 89.4765 34.9582L89.071 36.4887ZM91.1116 36.7819C91.8031 36.7779 92.4398 36.5936 92.9791 36.1946L92.0374 34.9218C91.8065 35.0926 91.509 35.1964 91.1025 35.1987L91.1116 36.7819ZM92.9724 36.1994C93.5439 35.7858 93.9299 35.1505 94.1878 34.4031L92.6912 33.8866C92.4957 34.453 92.2609 34.76 92.0441 34.9169L92.9724 36.1994ZM94.1888 34.4004L94.4921 33.5109L92.9935 32.9999L92.6902 33.8894L94.1888 34.4004ZM94.4797 32.9661L86.2285 11.9485L84.7547 12.5271L93.0059 33.5447L94.4797 32.9661ZM85.5221 13.0289L91.5628 12.7959L91.5017 11.2138L85.4611 11.4468L85.5221 13.0289ZM90.7792 12.2488L95.6536 27.293L97.1598 26.805L92.2853 11.7608L90.7792 12.2488ZM96.4372 27.84L96.653 27.8317L96.5919 26.2496L96.3762 26.258L96.4372 27.84ZM97.3916 27.2278L101.133 11.8513L99.5949 11.477L95.8533 26.8535L97.3916 27.2278ZM100.395 12.4552L106.476 12.2207L106.415 10.6386L100.334 10.8731L100.395 12.4552ZM105.689 11.1966L98.5241 34.4562L100.037 34.9223L107.202 11.6627L105.689 11.1966ZM98.5232 34.4589C98.2032 35.5112 97.7533 36.4186 97.1799 37.1906L98.4509 38.1346C99.1441 37.2013 99.6709 36.1265 100.038 34.9196L98.5232 34.4589ZM97.1743 37.1982C96.6287 37.9513 95.9234 38.5436 95.0449 38.9771L95.7456 40.3969C96.846 39.8538 97.7541 39.0965 98.4564 38.127L97.1743 37.1982ZM95.0397 38.9797C94.1761 39.4139 93.0888 39.6724 91.7507 39.724L91.8117 41.3061C93.3142 41.2482 94.6362 40.9546 95.7508 40.3942L95.0397 38.9797ZM113.215 31.9102L113.245 32.7012L113.82 32.6791L113.977 32.1259L113.215 31.9102ZM106.958 32.1515L106.201 31.9222L105.879 32.9854L106.989 32.9426L106.958 32.1515ZM115.426 4.1693L115.396 3.37826L114.832 3.4L114.669 3.94001L115.426 4.1693ZM122.95 3.87909L123.688 3.59244L123.484 3.06629L122.92 3.08805L122.95 3.87909ZM133.535 31.1264L133.565 31.9175L134.675 31.8747L134.273 30.8398L133.535 31.1264ZM127.278 31.3677L126.535 31.641L126.734 32.181L127.309 32.1588L127.278 31.3677ZM119.539 10.3304L120.282 10.0571L120.084 9.51717L119.509 9.53934L119.539 10.3304ZM119.324 10.3387L119.293 9.54766L118.719 9.56982L118.562 10.123L119.324 10.3387ZM112.405 21.0709L112.375 20.2799L111.584 20.3104L111.614 21.1015L112.405 21.0709ZM127.183 20.5009L127.974 20.4704L127.944 19.6794L127.153 19.7099L127.183 20.5009ZM127.359 25.0584L127.39 25.8494L128.181 25.8189L128.15 25.0279L127.359 25.0584ZM112.581 25.6284L111.79 25.6589L111.82 26.45L112.611 26.4195L112.581 25.6284ZM113.184 31.1192L106.928 31.3605L106.989 32.9426L113.245 32.7012L113.184 31.1192ZM107.716 32.3808L116.184 4.39859L114.669 3.94001L106.201 31.9222L107.716 32.3808ZM115.457 4.96034L122.981 4.67013L122.92 3.08805L115.396 3.37826L115.457 4.96034ZM122.212 4.16574L132.797 31.4131L134.273 30.8398L123.688 3.59244L122.212 4.16574ZM133.504 30.3354L127.248 30.5767L127.309 32.1588L133.565 31.9175L133.504 30.3354ZM128.021 31.0944L120.282 10.0571L118.796 10.6037L126.535 31.641L128.021 31.0944ZM119.509 9.53934L119.293 9.54766L119.354 11.1297L119.57 11.1214L119.509 9.53934ZM118.562 10.123L112.453 31.6945L113.977 32.1259L120.085 10.5544L118.562 10.123ZM112.436 21.862L127.214 21.292L127.153 19.7099L112.375 20.2799L112.436 21.862ZM126.392 20.5314L126.568 25.0889L128.15 25.0279L127.974 20.4704L126.392 20.5314ZM127.329 24.2674L112.55 24.8374L112.611 26.4195L127.39 25.8494L127.329 24.2674ZM113.372 25.5979L113.196 21.0404L111.614 21.1015L111.79 25.6589L113.372 25.5979ZM137.621 30.9688L136.83 30.9993L136.861 31.7904L137.652 31.7598L137.621 30.9688ZM136.822 10.2579L136.792 9.46687L136.001 9.49739L136.031 10.2884L136.822 10.2579ZM142.566 10.0364L143.357 10.0058L143.327 9.21481L142.536 9.24532L142.566 10.0364ZM143.365 30.7472L143.396 31.5383L144.187 31.5078L144.156 30.7167L143.365 30.7472ZM137.374 6.71216L136.85 7.30531L136.859 7.31317L137.374 6.71216ZM137.216 2.61313L137.78 3.16852L137.781 3.16825L137.216 2.61313ZM141.598 2.4441L141.074 3.03725L141.083 3.04511L141.598 2.4441ZM141.756 6.54313L142.321 7.09852L142.321 7.09825L141.756 6.54313ZM138.412 30.9383L137.613 10.2274L136.031 10.2884L136.83 30.9993L138.412 30.9383ZM136.853 11.049L142.597 10.8274L142.536 9.24532L136.792 9.46687L136.853 11.049ZM141.775 10.0669L142.574 30.7778L144.156 30.7167L143.357 10.0058L141.775 10.0669ZM143.335 29.9562L137.591 30.1778L137.652 31.7598L143.396 31.5383L143.335 29.9562ZM139.574 6.68581C138.914 6.71127 138.367 6.52051 137.889 6.11114L136.859 7.31317C137.648 7.98928 138.588 8.30831 139.635 8.26789L139.574 6.68581ZM137.899 6.11907C137.429 5.70362 137.204 5.22767 137.182 4.65349L135.6 4.71452C135.64 5.7404 136.071 6.61655 136.85 7.30524L137.899 6.11907ZM137.182 4.65349C137.161 4.09152 137.345 3.61032 137.78 3.16852L136.652 2.05774C135.926 2.79502 135.561 3.6944 135.6 4.71452L137.182 4.65349ZM137.781 3.16825C138.225 2.71588 138.755 2.48176 139.411 2.45644L139.35 0.874359C138.299 0.914921 137.385 1.31261 136.652 2.05801L137.781 3.16825ZM139.411 2.45644C140.067 2.43113 140.606 2.62377 141.074 3.03719L142.123 1.85102C141.341 1.16029 140.402 0.833791 139.35 0.874359L139.411 2.45644ZM141.083 3.04511C141.559 3.453 141.781 3.91741 141.803 4.47528L143.385 4.41425C143.345 3.39004 142.904 2.52067 142.114 1.84309L141.083 3.04511ZM141.803 4.47528C141.825 5.04541 141.637 5.53613 141.192 5.988L142.321 7.09825C143.054 6.35237 143.425 5.44418 143.385 4.41425L141.803 4.47528ZM141.192 5.98774C140.758 6.42852 140.234 6.66036 139.574 6.68581L139.635 8.26789C140.683 8.22747 141.594 7.83683 142.321 7.09852L141.192 5.98774ZM148.726 30.5405L147.935 30.571L147.965 31.362L148.756 31.3315L148.726 30.5405ZM147.927 9.82959L147.897 9.03855L147.106 9.06906L147.136 9.8601L147.927 9.82959ZM153.496 9.61479L154.287 9.58428L154.256 8.79324L153.465 8.82375L153.496 9.61479ZM153.635 13.2284L152.844 13.2589L152.875 14.05L153.666 14.0195L153.635 13.2284ZM153.851 13.2201L153.881 14.0111L154.474 13.9883L154.619 13.4137L153.851 13.2201ZM155.64 10.2343L156.134 10.8529L156.138 10.8496L155.64 10.2343ZM159.608 9.13597L159.663 8.34623L159.608 9.13597ZM160.49 9.25048L161.281 9.21997L161.257 8.60234L160.652 8.47566L160.49 9.25048ZM160.687 14.3473L160.489 15.1137L161.519 15.38L161.478 14.3168L160.687 14.3473ZM156.004 14.771L156.411 15.4501L156.414 15.4481L156.004 14.771ZM154.498 16.3415L153.803 15.9621L153.799 15.9693L154.498 16.3415ZM154.47 30.3189L154.5 31.11L155.292 31.0794L155.261 30.2884L154.47 30.3189ZM149.517 30.51L148.718 9.79907L147.136 9.8601L147.935 30.571L149.517 30.51ZM147.958 10.6206L153.526 10.4058L153.465 8.82375L147.897 9.03855L147.958 10.6206ZM152.705 9.6453L152.844 13.2589L154.426 13.1979L154.287 9.58428L152.705 9.6453ZM153.666 14.0195L153.881 14.0111L153.82 12.429L153.605 12.4374L153.666 14.0195ZM154.619 13.4137C154.913 12.245 155.431 11.4141 156.134 10.8529L155.146 9.61573C154.119 10.4355 153.444 11.5952 153.083 13.0264L154.619 13.4137ZM156.138 10.8496C156.863 10.2625 157.709 9.94741 158.706 9.90896L158.645 8.32688C157.323 8.37788 156.145 8.80703 155.142 9.61896L156.138 10.8496ZM158.706 9.90896C158.961 9.89912 159.243 9.90423 159.553 9.9257L159.663 8.34623C159.305 8.32144 158.965 8.31453 158.645 8.32688L158.706 9.90896ZM159.553 9.9257C159.861 9.947 160.118 9.98128 160.328 10.0253L160.652 8.47566C160.354 8.41325 160.023 8.37119 159.663 8.34623L159.553 9.9257ZM159.699 9.28099L159.896 14.3778L161.478 14.3168L161.281 9.21997L159.699 9.28099ZM160.885 13.5809C160.552 13.4949 160.129 13.4326 159.633 13.3865L159.486 14.963C159.948 15.0059 160.276 15.0587 160.489 15.1137L160.885 13.5809ZM159.633 13.3865C159.126 13.3394 158.654 13.3229 158.217 13.3398L158.278 14.9218C158.633 14.9082 159.035 14.921 159.486 14.963L159.633 13.3865ZM158.217 13.3398C157.253 13.3769 156.372 13.6226 155.594 14.0939L156.414 15.4481C156.938 15.1309 157.552 14.9498 158.278 14.9218L158.217 13.3398ZM155.597 14.0919C154.833 14.5498 154.232 15.1772 153.803 15.9621L155.193 16.7209C155.487 16.1815 155.89 15.7619 156.411 15.4501L155.597 14.0919ZM153.799 15.9693C153.373 16.7699 153.19 17.6654 153.227 18.6321L154.809 18.5711C154.781 17.8479 154.918 17.2366 155.197 16.7137L153.799 15.9693ZM153.227 18.6321L153.679 30.3494L155.261 30.2884L154.809 18.5711L153.227 18.6321ZM154.439 29.5279L148.695 29.7494L148.756 31.3315L154.5 31.11L154.439 29.5279Z" fill="white" mask="url(#path-1-outside-1_857_93848)"/>
</svg>
