<svg width="100" height="54" viewBox="0 0 100 54" fill="none" xmlns="http://www.w3.org/2000/svg" style="">
<path d="M0.146484 1C11.1566 1 11.1566 13.583 22.1668 13.583C33.1769 13.583 33.1534 1 44.1636 1C55.1737 1 55.1737 13.583 66.1838 13.583C77.194 13.583 77.1941 1 88.2043 1C99.2144 1 99.2144 13.583 110.225 13.583C121.235 13.583 121.235 1 132.245 1C143.255 1 143.255 13.583 154.265 13.583C165.275 13.583 165.275 1 176.285 1C187.296 1 187.319 13.583 198.329 13.583" stroke="black" stroke-width="0.539374" stroke-miterlimit="10" class="XZwLzHuo_0"></path>
<path d="M0.146484 21.4473C11.1566 21.4473 11.1566 34.0303 22.1668 34.0303C33.1769 34.0303 33.1534 21.4473 44.1636 21.4473C55.1737 21.4473 55.1737 34.0303 66.1838 34.0303C77.194 34.0303 77.1941 21.4473 88.2043 21.4473C99.2144 21.4473 99.2144 34.0303 110.225 34.0303C121.235 34.0303 121.235 21.4473 132.245 21.4473C143.255 21.4473 143.255 34.0303 154.265 34.0303C165.275 34.0303 165.275 21.4473 176.285 21.4473C187.296 21.4473 187.319 34.0303 198.329 34.0303" stroke="black" stroke-width="0.539374" stroke-miterlimit="10" class="XZwLzHuo_1"></path>
<path d="M0.146484 41.8945C11.1566 41.8945 11.1566 52.9047 22.1668 52.9047C33.1769 52.9047 33.1534 41.8945 44.1636 41.8945C55.1737 41.8945 55.1737 52.9047 66.1838 52.9047C77.194 52.9047 77.1941 41.8945 88.2043 41.8945C99.2144 41.8945 99.2144 52.9047 110.225 52.9047C121.235 52.9047 121.235 41.8945 132.245 41.8945C143.255 41.8945 143.255 52.9047 154.265 52.9047C165.275 52.9047 165.275 41.8945 176.285 41.8945C187.296 41.8945 187.319 52.9047 198.329 52.9047" stroke="black" stroke-width="0.539374" stroke-miterlimit="10" class="XZwLzHuo_2"></path>
<style data-made-with="vivus-instant">.XZwLzHuo_0{stroke-dasharray:238 240;stroke-dashoffset:239;animation:XZwLzHuo_draw_0 8800ms linear 0ms infinite,XZwLzHuo_fade 8800ms linear 0ms infinite;}.XZwLzHuo_1{stroke-dasharray:238 240;stroke-dashoffset:239;animation:XZwLzHuo_draw_1 8800ms linear 0ms infinite,XZwLzHuo_fade 8800ms linear 0ms infinite;}.XZwLzHuo_2{stroke-dasharray:230 232;stroke-dashoffset:231;animation:XZwLzHuo_draw_2 8800ms linear 0ms infinite,XZwLzHuo_fade 8800ms linear 0ms infinite;}@keyframes XZwLzHuo_draw{100%{stroke-dashoffset:0;}}@keyframes XZwLzHuo_fade{0%{stroke-opacity:1;}77.27272727272728%{stroke-opacity:1;}100%{stroke-opacity:0;}}@keyframes XZwLzHuo_draw_0{9.090909090909092%{stroke-dashoffset: 239}31.818181818181817%{ stroke-dashoffset: 0;}100%{ stroke-dashoffset: 0;}}@keyframes XZwLzHuo_draw_1{14.772727272727273%{stroke-dashoffset: 239}37.5%{ stroke-dashoffset: 0;}100%{ stroke-dashoffset: 0;}}@keyframes XZwLzHuo_draw_2{20.454545454545457%{stroke-dashoffset: 231}43.18181818181818%{ stroke-dashoffset: 0;}100%{ stroke-dashoffset: 0;}}</style></svg>
