<svg width="79" height="41" viewBox="0 0 79 41" fill="none" xmlns="http://www.w3.org/2000/svg">
<path d="M-49.7188 1.14941C-42.6133 1.14941 -42.6133 10.5365 -35.5078 10.5365C-28.4024 10.5365 -28.4175 1.14941 -21.3121 1.14941C-14.2066 1.14941 -14.2066 10.5365 -7.10117 10.5365C0.00429987 10.5365 0.00437082 1.14941 7.10984 1.14941C14.2153 1.14941 14.2153 10.5365 21.3207 10.5365C28.4262 10.5365 28.4262 1.14941 35.5317 1.14941C42.6371 1.14941 42.6371 10.5365 49.7426 10.5365C56.848 10.5365 56.8481 1.14941 63.9536 1.14941C71.059 1.14941 71.0742 10.5365 78.1797 10.5365" stroke="black" stroke-width="0.539374" stroke-miterlimit="10"/>
<path d="M-49.7188 16.4043C-42.6133 16.4043 -42.6133 25.7914 -35.5078 25.7914C-28.4024 25.7914 -28.4175 16.4043 -21.3121 16.4043C-14.2066 16.4043 -14.2066 25.7914 -7.10117 25.7914C0.00430059 25.7914 0.00437021 16.4043 7.10984 16.4043C14.2153 16.4043 14.2153 25.7914 21.3207 25.7914C28.4262 25.7914 28.4262 16.4043 35.5317 16.4043C42.6371 16.4043 42.6371 25.7914 49.7426 25.7914C56.848 25.7914 56.8481 16.4043 63.9536 16.4043C71.059 16.4043 71.0742 25.7914 78.1797 25.7914" stroke="black" stroke-width="0.539374" stroke-miterlimit="10"/>
<path d="M-49.7188 31.6572C-42.6133 31.6572 -42.6133 39.8709 -35.5078 39.8709C-28.4024 39.8709 -28.4175 31.6572 -21.3121 31.6572C-14.2066 31.6572 -14.2066 39.8709 -7.10117 39.8709C0.00429987 39.8709 0.00437082 31.6572 7.10984 31.6572C14.2153 31.6572 14.2153 39.8709 21.3207 39.8709C28.4262 39.8709 28.4262 31.6572 35.5317 31.6572C42.6371 31.6572 42.6371 39.8709 49.7426 39.8709C56.848 39.8709 56.8481 31.6572 63.9536 31.6572C71.059 31.6572 71.0742 39.8709 78.1797 39.8709" stroke="black" stroke-width="0.539374" stroke-miterlimit="10"/>
</svg>
